<?xml version="1.0" encoding="utf-8"?>
<!-- Generator: Adobe Illustrator 16.0.0, SVG Export Plug-In . SVG Version: 6.00 Build 0)  -->
<!DOCTYPE svg PUBLIC "-//W3C//DTD SVG 1.1//EN" "http://www.w3.org/Graphics/SVG/1.1/DTD/svg11.dtd">
<svg version="1.1" id="Layer_1" xmlns="http://www.w3.org/2000/svg" xmlns:xlink="http://www.w3.org/1999/xlink" x="0px" y="0px"
	 width="1000px" height="566.737px" viewBox="0 0 1000 566.737" enable-background="new 0 0 1000 566.737" xml:space="preserve">
<g>
	<path d="M758.057,144.617c2.236-0.754,4.666-1.251,7.15-1.69c2.455-0.434,4.955-0.805,7.367-1.321
		c4.764-1.023,9.068-2.583,11.998-6.148c0.154-1.391-0.734-2.527-2.381-3.597c-14.035,0.223-30.168-0.237-44.176-1.854l-0.512-0.057
		l0.025-0.522c0.6-12.699,1.52-25.398,2.625-38.465c1.193-1.074,2.279-2.283,3.359-3.529c1.088-1.255,2.148-2.536,3.279-3.74
		c2.285-2.424,4.889-4.588,8.557-5.555l0.609,0.249c5.621,9.17,19.633,12.188,31.547,12.431c2.223-0.403,3.08-2.202,3.406-3.694
		c-1.475-1.906-3.277-3.756-5.234-5.58c-2.025-1.902-4.201-3.761-6.293-5.652c-4.195-3.771-8.184-7.72-10.074-12.643
		c0.77-2.035-0.508-3.513-2.305-5.229l-1.318-1.26c-0.434-0.429-0.848-0.878-1.203-1.353c-0.656-0.894-1.121-1.907-1.033-3.096
		c-1.438-1.673-3.406-3.161-5.398-4.246c-6.434-0.894-11.895-0.212-16.957,1.239c-5.1,1.453-9.781,3.674-14.617,5.849
		c-5.781,5.285-12.096,10.178-17.877,15.149c-5.775,4.97-10.969,9.98-14.59,15.551c-0.635,1.901-1.736,3.638-2.996,5.286
		c-1.262,1.653-2.703,3.255-4.066,4.893c-2.713,3.254-4.945,6.509-4.898,10.881c-2.924,4.423-2.584,9.078-1.633,13.893
		c0.48,2.435,1.102,4.856,1.51,7.26c0.412,2.418,0.609,4.856,0.211,7.249l-0.098,0.604l-0.596-0.149
		c-3.072-0.774-6.1-0.454-9.109,0.284c-3.031,0.749-5.936,1.87-8.818,2.671c-0.832,0.414-1.322,0.765-1.648,1.214
		c0.043,0.083,0.188,0.223,0.537,0.408c0.357,0.187,0.775,0.341,1.186,0.502c1.797,0.691,4.012,1.969-0.813,3.595
		c-0.18,0.492-0.113,0.651-0.098,0.672c0.02,0.048,0.119,0.135,0.537,0.207c0.418,0.078,0.902,0.098,1.373,0.171
		c0.492,0.083,1.07,0.228,1.633,0.811c0.172,0.399,0.166,0.739,0.043,1.034c5.797,1.038,11.809,1.731,17.717,3.534
		c1.521,15.23,3.352,30.457,4.871,45.611c4.961,20.04,7.91,40.883,9.977,61.968c2.066,21.059,3.244,42.396,4.65,63.388
		c-0.311,5.859-1.705,10.081,0.557,15.329c1.406,3.245,2.113,8.241,2.816,5.354c0.631-0.124,0.797-0.253,0.43-1.096l0.248-3.533
		c0.871-3.363,1.223-6.748,1.404-10.117c0.182-3.398,0.186-6.805,0.355-10.163c0.326-6.717,1.303-13.36,5.686-19.565l0.563-1.824
		c0.311-5.838,1.213-11.608,2.391-17.37c1.184-5.766,2.656-11.511,4.113-17.287c2.895-11.521,5.695-23.095,6.004-35.112
		c-1.844-7.29-0.197-13.857,2.02-20.207c1.107-3.177,2.367-6.318,3.426-9.501c1.051-3.167,1.893-6.355,2.346-9.981
		c3.244-3.332,4.361-7.229,4.625-11.388c0.264-4.222-0.346-8.649-0.439-13.175C743.706,155.027,747.75,147.923,758.057,144.617"/>
	<path d="M545.631,183.211c-1.947-0.43-4.225-0.6-6.588-0.909c-4.732-3.11-10.105-2.631-15.83-1.887
		c-2.877,0.383-5.777,0.817-8.645,0.868c-2.871,0.047-5.734-0.284-8.514-1.451c-5.047-1.22-8.824,0.315-12.25,2.521
		c-1.736,1.121-3.358,2.402-4.976,3.56c-1.445,1.029-2.919,1.995-4.489,2.656c0.243,0.604,0.161,1.229-0.021,1.787
		c-0.212,0.693-0.609,1.416-0.884,2.114c-0.408,1.064-0.604,2.066,2.574,3.208c1.554,3.514,3.058,4.594,7.863,6.897
		c8.643,16.342,7.299,36.16-1.648,52.008l-0.709,0.232c-1.952-0.858-3.998-1.529-6.085-2.13c-2.104-0.608-4.248-1.151-6.365-1.746
		c-4.232-1.184-8.422-2.594-12.158-5.486c-3.941-13.144-4.603-28.143-9.2-41.757c-0.198-0.656-0.74-1.317-1.495-2.011
		c-0.77-0.707-1.668-1.384-2.442-2.075c-1.457-1.287-2.837-2.945-1.53-5.002c-2.806-2.655-3.26-6.071-3.332-9.361
		c-0.047-1.701,0.021-3.406-0.077-5.044c-0.089-1.602-0.32-3.058-0.936-4.354l-5.937,3.301l-0.599,19.701
		c0.449,8.648,0.371,17.07-1.648,25.91c-2.227,4.69-1.84,9.79-1.271,14.993c0.295,2.615,0.62,5.214,0.672,7.734
		c0.046,2.506-0.171,4.97-0.981,7.331c1.286,10.122,0.238,21.267,1.379,31.842c1.138,10.508,4.449,20.361,14.405,28.065
		c4.376,1.633,7.646,0.765,10.844-0.585c1.648-0.691,3.25-1.509,4.939-2.154c1.7-0.656,3.509-1.157,5.533-1.234
		c8.287-1.225,10.623-5.146,12.722-9.331c0.536-1.08,1.054-2.159,1.637-3.219c0.595-1.063,1.271-2.119,2.114-3.104
		c1.684-1.964,4.03-3.617,7.713-4.631c5.452-2.753,6.309-6.709,7.042-10.906c0.186-1.074,0.363-2.144,0.6-3.197
		c0.248-1.075,0.563-2.134,1.014-3.157c0.914-2.071,2.412-3.983,5.063-5.538l0.629-0.372l0.193,0.707
		c0.748,2.749,1.373,3.617,2.129,3.818l0.672-0.465c1.791-1.446,2.836-0.94,3.621,4.707c0.98,9.221,3.885,22.16,6.246,35.173
		c2.34,12.892,4.17,25.952,3.084,35.599l4.025,2.443l1.07-0.625c0.381-17.639,6.627-55.242,10.25-72.54
		c0.971-32.239,6.529-59.332,4.582-90.869C548.917,184.25,547.512,183.625,545.631,183.211"/>
	<path d="M341.601,239.708c-2.97,2.826-6.562,5.364-10.322,7.678c-3.756,2.31-7.699,4.417-11.408,6.407
		c-3.575,2-7.394,3.498-11.258,4.861c-3.854,1.358-7.786,2.6-12.054,4.082c-21.555-8.923-42.78-18.331-63.694-28.748l0.305-1.053
		c8.23,0.743,16.229,2.795,24.18,5.187c7.626,2.3,15.215,4.909,22.945,6.976c-0.299-0.542-0.987-1.229-2.041-1.947
		c-1.442-0.998-3.271-1.84-4.49-2.201c-14.771-6.186-30.86-9.657-46.339-14.803c-2.594-16.456,0-33.139,4.19-48.525l0.563-0.418
		c28.984,1.487,56.058,6.211,80.568,15.649c13.154,6.185,28.447,14.172,35.675,25.61
		C351.078,227.159,347.563,234.061,341.601,239.708 M275.701,268.208c-8.695,2.231-17.535,4.831-26.546,6.938
		c-9.036,2.113-18.238,3.726-28.054,3.757c-7.316-9.481-1.953-23.441,2.847-32.55l0.641-0.279
		c9.031,2.484,17.571,5.962,25.998,9.719c8.396,3.745,16.668,7.766,25.188,11.355l1.529,0.646L275.701,268.208z M244.139,85.976
		c-0.651-2.269-0.848-4.521-0.93-6.691c-0.078-2.165-0.041-4.294-0.202-6.361c-0.31-4.05-1.395-7.78-5.947-11.289l0.398-2.79
		c1.88-0.569,3.896-0.884,5.952-1.137c2.02-0.247,4.071-0.439,6.055-0.771c3.937-0.64,7.46-1.782,10.313-5.052
		c22.206-0.868,45.957,2.439,66.769,22.144c5.947,14.503,0.79,25.864-20.791,35.835c-10.374,5.622-22.036,7.865-33.872,9.611
		c-5.911,0.872-11.883,1.617-17.773,2.6c-5.88,0.97-11.682,2.168-17.288,3.967l-0.713,0.223l-0.016-0.749
		c-0.077-3.648,0.455-7.079,1.276-10.375c0.816-3.281,1.922-6.454,3.018-9.625C242.552,99.207,244.593,93.007,244.139,85.976
		 M202.449,200.312c-0.522,7.445-1.405,14.871-1.571,22.295l-1.089,0.149c-2.108-7.012-2.594-14.502-2.956-21.994
		c-0.361-7.455-0.594-14.978-2.201-22.324c0.398-3.111,6.009-3.576,7.203-0.765C203.136,185.293,202.971,192.836,202.449,200.312
		 M199.742,280.359c-25.42,2.967-55.376,0.492-80.486-0.506c-8.892-1.121-16.518-3.482-23.962-6.029
		c-7.409-2.526-14.746-5.255-23.085-7.104c-6.221-2.273-11.294-7.12-11.94-12.875c3.638-9.408,12.457-14.317,22.8-17.271
		c10.302-2.945,22.34-4.01,32.653-5.616c27.683-0.997,54.126,0.98,78.605,6.199l0.444,0.517c0.155,3.535,0.868,7.021,1.792,10.504
		c0.915,3.498,2.031,6.96,2.971,10.427C201.431,265.562,202.676,272.635,199.742,280.359 M191.749,131.26
		c-3.684,0.667-4.464-0.729-4.356-2.717c0.037-0.775,0.196-1.644,0.171-2.444c-0.031-0.733-0.217-1.266-0.977-2.03
		c-0.486-6.206,0.238-12.777,0.16-19.111c-0.077-6.272-0.961-12.203-4.661-17.64c0.481-5.785,0.238-11.701-0.201-17.37
		c-0.444-5.698-1.085-11.145-1.405-15.98l1.054-0.284c0.971,1.988,1.617,3.978,2.619,6.344c3.86,23.043,4.826,47.812,8.044,70.602
		l0.073,0.532L191.749,131.26z M365.291,187.583c-13.649-5.937-28.835-10.323-44.113-13.893c-15.304-3.581-30.7-6.341-44.996-9.104
		c-1.101-0.847-2.485-1.286-4.061-1.514c-1.596-0.232-3.327-0.243-5.053-0.264c-3.431-0.03-7.13-0.067-9.569-2.211l-0.599-0.527
		l0.703-0.388c0.801-0.429,3.074-0.784,6.241-1.199c3.235-0.429,7.584-0.924,12.7-1.596c10.219-1.332,23.523-3.349,37.23-6.8
		c27.477-6.923,56.291-19.556,65.457-43.931c3.999-6.862,0.341-14.524-3.534-20.75c-7.621-15.66-26.113-27.998-45.672-35.159
		c-1.908-0.671-3.906-1.157-5.958-1.56c-2.072-0.403-4.196-0.723-6.319-1.043c-4.252-0.651-8.556-1.333-12.472-2.842
		c-6.846-2.083-14.482-2.697-22.248-3.317c-3.89-0.306-7.792-0.626-11.6-1.116c-3.833-0.497-7.58-1.183-11.145-2.247l-0.392-0.63
		c1.524-8.68-4.366-12.126-12.359-14.699c-3.999-1.286-8.411-2.31-12.452-3.659c-3.994-1.322-7.708-2.991-10.292-5.564
		c-2.181-0.584-3.896-1.55-5.363-2.702c-0.738-0.584-1.421-1.214-2.067-1.875c-0.64-0.646-1.25-1.317-1.859-1.984
		c-2.408-2.666-4.712-5.208-8.876-6.272c-8.649-1.907-17.008,0.144-23.937,3.229c1.891,6.107-2.423,8.379-7.388,9.972
		c-2.542,0.821-5.399,1.509-7.977,2.464c-2.496,0.935-4.634,2.092-5.993,3.803c-0.104,2.738,0.945,5.228,2.495,7.678
		c1.602,2.526,3.689,4.934,5.452,7.398l0.418,0.59l-0.672,0.263c-5.885,2.258-12.637,2.816-19.385,3.125
		c-6.675,0.31-13.417,0.368-19.468,1.571c-3.358,2.898-8.23,3.643-13.046,4.216c-2.439,0.294-4.914,0.548-7.264,1.006
		c-2.33,0.45-4.495,1.101-6.598,2.248c-9.864,0.486-18.311,3.556-26.443,7.254c-8.138,3.705-15.908,8.019-24.397,11.001
		c-2.516,2.475-5.543,4.701-8.54,6.845c-0.817,0.58-1.602,1.157-2.408,1.736c-1.018,0.305-1.902,0.78-2.873,1.508
		c-1.509,1.127-2.945,2.258-4.241,3.426c-2.729,2.455-4.738,5.022-5.508,7.937c-2.832,2.572-4.335,5.341-2.32,9.253
		c0.444,0.346,0.604,0.884,0.677,1.384c0.078,0.508,0.072,1.069,0.129,1.562c0.093,0.749,0.242,1.281,2.128,0.641
		c0.822,0.423,1.158,0.961,1.122,1.519c0.356-0.186,0.677-0.248,0.992-0.31c0.155,1.12,0.532,1.871,3.007,1.178
		c0.046,0.042,0.093,0.082,0.139,0.13l0.899,0.95c0.305,0.32,0.61,0.625,0.936,0.884c0.237,0.196,0.496,0.346,0.754,0.479
		c0,0.011,0.005,0.016,0.005,0.026c0.005-0.006,0.016-0.006,0.021-0.011c0.388,0.201,0.796,0.352,1.266,0.383
		c0.228-0.455,0.583-0.796,0.998-1.069c2.071-0.192,3.637,1.007,5.078,2.47l1.597,1.694c0.537,0.568,1.08,1.105,1.653,1.57
		c1.059,0.857,2.217,1.468,3.643,1.556c0.749-1.488,2.211-2.351,3.808-2.93c1.695-0.609,3.694-0.94,5.513-1.338
		c3.71-0.807,5.761-1.695,4.356-5.054l-0.3-0.707l0.765-0.104c1.39-0.171,1.834,0.563,2.253,1.663l0.537,0.641
		c2.661-0.867,5.471-1.322,8.168-1.963c2.583-0.61,4.981-1.384,6.913-2.977c-0.155-0.18-0.387-0.376-0.682-0.604l-0.909-0.709
		c-0.259-0.212-0.532-0.453-0.739-0.733c-1.271-0.667-2.119-1.003-2.698-1.111c-0.552-0.108-0.738,0.011-0.857,0.141
		c-0.181,0.206-0.32,0.579-0.511,1.26c-0.181,0.661-0.382,1.468-0.724,2.336l-0.289,0.718l-0.615-0.469
		c-1.075-0.833-2.485-1.262-4.077-1.617c-1.623-0.367-3.333-0.627-4.878-1.153l-0.392-0.609c0.202-2.159,2.098-3.467,3.844-4.459
		c0.883-0.506,1.808-0.961,2.619-1.442c0.76-0.458,1.354-0.882,1.706-1.337c1.772-3.416-0.46-7.244-5.038-9.816
		c-1.292-0.021-2.573-0.305-3.844-0.719c-1.302-0.418-2.625-0.971-3.983-1.528c-2.708-1.111-5.482-2.17-8.562-2.17l-1.116,0.005
		l1.039-1.044c5.456-2.107,10.829-5.135,16.523-7.724c5.714-2.609,11.79-4.8,18.615-5.192c12.1-3.839,25.389-5.513,38.961-6.593
		c13.573-1.085,27.476-1.581,41.318-2.847c3.967,5.224,4.773,11.377,5.094,17.552c0.16,3.073,0.202,6.188,0.439,9.248
		c0.243,3.039,0.682,6,1.627,8.789c2.108,7.125,2.677,14.813,3.079,22.491c0.403,7.646,0.641,15.359,2.078,22.64l0.108,0.537
		l-0.538,0.113c-2.237,0.496-4.475,1.234-7.156,1.999c-8.009,0.492-15.67,1.726-22.795,3.959
		c-20.749,2.464-40.17,7.604-56.094,18.807v1.973c-0.263,2.314,1.137,3.003,3.596,3.244c1.24,0.124,2.62,0.124,3.932,0.201
		c1.287,0.079,2.589,0.228,3.637,0.678c2.558,0.29,3.28,1.534,2.666,3.101c-0.253,0.641-0.713,1.281-1.163,1.838
		c-0.326,0.409-0.671,0.791-0.961,1.122c0.527,0.733,1.333,0.966,2.376,1.215l0.894,0.222c0.31,0.088,0.625,0.19,0.919,0.32
		c0.553,0.232,1.08,0.574,1.529,1.116c12.271,1.197,24.624,0.651,36.936,0.221c12.452-0.438,24.857-0.743,37.37,1.106l0.868,0.796
		c0.238,0.254,0.455,0.471,0.956,1.111c0.32,7.894,1.845,15.552,3.209,23.141c1.364,7.616,2.588,15.226,2.257,22.972l-0.02,0.558
		l-0.553-0.025c-22.505-0.987-46.923-2.475-71.186-2.202c-24.252,0.28-48.318,2.326-70.111,8.376
		c-16.099,4.216-33.773,10.596-39.468,23.389c-0.594,4.065,0.671,9.383,6.205,11.77c8.97,6.175,19.83,12.307,32.4,14.321
		c4.764,2.32,10.173,3.798,15.686,5.224c5.533,1.431,11.103,2.805,16.115,4.919l2.294,0.966l-2.49,0.099
		c-6.189,0.263-13.299-0.987-19.442-2.734C40.331,283.227,18.595,278.251,0,266.802c2.806,3.807,6.686,6.887,10.994,9.847
		c2.547,1.747,5.234,3.437,7.9,5.208c2.682,1.783,5.348,3.632,7.854,5.684l0.703,0.577l-0.827,0.368
		c-1.266,0.558-2.65,0.558-4.015,0.371c-1.322-0.191-2.697-0.578-4.019-0.893c-2.434-0.574-4.309-0.771-5.539,0.614
		c3.513,2.263,7.466,3.896,11.517,5.338c4.272,1.522,8.618,2.824,12.824,4.561c2.749,2.691,6.649,3.303,10.782,3.927
		c2.083,0.311,4.159,0.631,6.081,1.23c1.896,0.583,3.679,1.451,5.178,2.872c16.316,1.493,31.066,5.436,47.409,6.913
		c28.607,4.216,59.116,8.67,92.213,6.794c0.491,0.383,0.899,0.76,1.308,1.106c0.393,0.336,1.906-0.284,2.635,0.352
		c1.519,10.358,2.873,20.872,4.293,31.185c0.377,2.754,1.411,6.268,1.803,9.036c-0.242,0.616-1.942,1.458-1.637,2.771
		c0.413,1.787,0.558,2.608,0.857,3.926c0.212,0.92,0.227,1.328,0.274,2.961l-0.243,2.062c0,0-0.656,2.176,0,5.43
		c0.651,3.26,1.969,3.079,1.969,4.821c0,1.735-1.085,3.477,0.434,6.737c1.524,3.259,4.35,9.991,6.081,10.426
		c1.741,0.439,0.868-4.997,0.868-6.732c0-1.736-0.651-6.303-0.868-8.473c-0.217-2.176-0.011,1.699,1.292-3.303
		c1.302-5,0.217-8.689,0.434-11.081c0.217-2.393-0.651-8.696-0.868-10.428c-0.217-1.739,2.17-6.736,2.609-13.479
		c0.434-6.73,2.17-11.949,2.17-11.949s-0.026-0.294-0.057-0.718c0.326-0.285,0.532-0.497,0.527-0.729c0-0.093,0.806,1.735,1.813,3.9
		c0.874,1.876-0.273,3.013,0.522,4.96c0.583,1.437,2.222,3.142,3.059,5.115c1.054,2.507,1.313,2.661,1.426,2.635
		c0.149-0.035,0.253-0.382,0.242-2.371c-0.01-1.953-0.118-3.037-0.145-3.802c-0.16-4.036,1.493-6.971,0.403-8.004
		c-0.114-0.108-0.49-0.418-0.805-0.977c-0.285-0.491-0.388-0.95-0.434-1.162c-0.094-0.434-0.099-0.765-0.104-1.267
		c-0.005-0.578,0.65-3.094,0.661-3.467c0.036-1.1,0.067-1.864-0.367-2.454c-0.429-0.579-0.191-1.834-0.795-2.588
		c-0.249-0.315-0.326-0.553-0.352-0.609c-0.149-0.476-0.005-0.786,0.057-1.4c0.072-0.729-0.098-0.688-0.062-1.509
		c0.026-0.496,0.051-1.101,0.341-1.689c0,0,0.377-0.755,1.308-1.308c1.984-1.151,7.568,0.067,9.744,0.362
		c4.599,0.614,7.724-1.069,10.447-1.866c14.239-4.137,79.773-5.389,118.414-19.524c15.629-5.725,48.401-22.67,48.789-49.935
		C415.8,213.472,392.569,199.434,365.291,187.583"/>
	<path d="M657.426,126.088c2.986-1.08,5.771-2.433,8.195-4.396l0.516-1.797c0.191-0.698,0.326-1.396,0.326-2.046
		c0-1.188-0.449-2.279-2.268-2.9c-11.285,0.455-23.473-0.919-35.057-1.39l-0.537-0.016V89.231c-1.354-1.375-2.025-2.956-2.346-4.604
		c-0.16-0.847-0.232-1.715-0.262-2.599c-0.021-0.863-0.006-1.741,0.014-2.615c0.078-3.502,0.125-6.701-2.547-9.367
		c-0.402-1.033-0.082-1.978,0.379-2.758c0.381-0.667,0.928-1.313,1.373-1.958c-1.441-9.021,4.912-17.21,13.811-21.384
		c4.199-1.344,6.055-0.135,7.229,1.974c0.521,0.93,0.914,2.036,1.432,3.1c0.494,1.028,1.078,1.943,1.967,2.615l0.211,0.532
		c-0.83,5.037,4.424,9.888,9.527,12.007c4.258-1.793,6.945-5.168,6.785-8.629c-2.641-2.82-4.729-5.823-6.541-8.901
		c-1.834-3.115-3.404-6.319-5.018-9.517c-3.188-6.36-6.494-12.606-12.338-18.058c-2.635-1.876-5.797-2.615-9.232-2.898
		c-3.441-0.284-7.082-0.114-10.566-0.227c-1.016,0.166-2.055,0.646-3.125,1.286c-1.105,0.656-2.186,1.437-3.25,2.114
		c-2.025,1.287-4.283,2.391-6.494,1.08c-1.152,0.733-2.02,1.601-2.811,2.51l-1.256,1.509c-0.424,0.512-0.832,0.992-1.301,1.463
		c-4.732,6.061-9.637,12.074-14.303,18.212c-4.66,6.113-9.063,12.312-12.771,18.713c-7.408,12.778-12.012,26.309-10.354,41.375
		c0,1.178,0.197,2.422,0.439,3.657c0.242,1.266,0.547,2.548,0.779,3.803c0.471,2.526,0.656,5.13-1.131,7.668
		c-6.676,0.232-12.938,1.141-17.986,4.262c-1.037,1.121-0.826,1.561-0.645,1.772c0.15,0.19,0.424,0.372,0.811,0.548
		c0.389,0.186,0.832,0.325,1.25,0.471c1.906,0.625,3.938,1.668-0.568,3.719c-0.527,0.408-0.836,0.744-0.5,1.152
		c0.293,0.104,0.641,0.187,0.998,0.274c0.391,0.108,0.777,0.201,1.119,0.336c0.336,0.119,0.725,0.31,0.971,0.625
		c0.305,0.372,0.338,0.831-0.082,1.68c2.92,0.107,5.684,0.577,8.385,1.136c3.045,0.636,6.01,1.379,9.055,1.84l0.469,0.531
		c0.615,20.522,1.824,40.559,4.871,60.155c4.455,19.354,4.609,50.364,4.01,81.534c-0.588,31.17-1.053,36.342,0.32,56.518
		c0.016,0.134,0.027,0.526,0.043,1.151l-0.305,0.698c0.039,2.082-0.332,31.511-0.141,32.508l0.682,5.172
		c-0.01,20.935-0.02,23.1,0.123,24.03c4.744,20.671,3.457-2.65,3.102,19.499l-0.006,35.184l-0.402-21.39l-0.006,0.553
		c-0.201,12.101-0.213,24.15,0.584,35.867c0.93,4.33,1.137,8.712,1.049,13.098c-0.082,4.366-0.469,8.758-0.729,13.108
		c-0.537,8.674-1.131,17.105,2.449,25.45c-0.367,0.63-0.475,1.777-0.289,2.594c0.195,0.857,0.443,1.291,0.289,2.098
		c-0.398,2.036,0.371,3.167-0.734,3.333c-1.006,0.144-0.977-0.053-1.736-0.704c-0.375-0.33,0.553-0.134,0.207-0.49l-0.945-0.966
		c-0.289-0.295-0.537-0.522-1.1-0.724c-0.094,0.166-0.182,0.48-0.254,0.992c1.369,4.355-2.025,7.926-2.945,12.064
		c-0.914,4.138-2.088,14.708-3.332,18.914c-2.645,2.305-1.947,3.25-0.471,4.278c0.885,0.614,2.047,1.188,3.178,1.855
		c1.096,0.646,2.223,1.414,3.043,2.401c2.512,0.595,4.475,0.155,6.309-0.572c0.961-0.389,1.871-0.848,2.791-1.287
		c0.904-0.434,0.977-1.143,1.932-1.437c1.674-2.024,4.057-4.118,5.891-6.433c1.828-2.319,2.65-11.268,2.076-14.136
		c0-3.007-1.922-3.729-4.713-4.299c-1.42-0.299-1.756-1.39-3.141-1.87c-1.426-0.496-1.674-3.384-1.461-4.654
		c0.211-1.267-1.58-7.095-2.549-12.317c-0.479-2.62-0.969-5.271-1.109-7.947c-0.141-2.707,0.066-5.45,1.012-8.241
		c0.971-3.414,1.387-6.84,1.598-10.301c0.211-3.488,0.211-6.96,0.361-10.386c0.305-6.846,1.213-13.63,5.662-19.953l1.85-29.559
		l0.537-6.272l0.816-7.703c2.703-42.072,7.395-50.411,9.992-83.044h0.006c2.418-37.675,4.453-40.996,4.965-50.307
		c-1.225-17.566,3.143-88.561,5.705-105.243c2.428-2.945,3.498-6.335,3.916-9.978c0.428-3.674,0.191-7.559,0.082-11.393
		c-0.232-7.729-0.063-15.525,7.043-21.137c4.705-5.336,11.164-7.353,17.613-9.109C651.12,128.001,654.364,127.195,657.426,126.088"
		/>
	<path d="M50.07,423.164c0.041-5.937,2.258-13.5,7.15-17.505l5.565,5.709v-10.597l-0.977,0.419
		c-12.845,5.544-19.633,15.04-19.633,27.461v31.785l7.657-3.482v-30.881l7.466,1.151v27.41c0,0.024-0.129,2.732-0.884,5.827
		c-0.65,2.697-1.571,4.883-2.728,6.484l0.894,1.027c8.184-4.34,10.369-11.134,10.369-14.461v-34.1l-6.096,3.751H50.07z"/>
	<polygon points="25.012,423.164 25.012,410.981 17.195,423.164 12.689,423.164 17.122,427.51 17.122,460.508 25.012,457.021 
		25.012,427.69 31.501,424.492 31.196,423.164 	"/>
	<path d="M95.36,437.642l-7.466,3.472v-13.884l7.466-1.291V437.642z M78.228,423.164l2.015,4.314v13.319
		c0,3.038,0.537,13.289,7.507,17.535l0.165,0.104h15.092v-13.784l-5.653,9.755l-7.429-0.146c-1.391-1.514-2-3.374-2.031-9.578
		l15.113-4.697v-20.34l-6.448,3.518H78.228z"/>
	<path d="M268.71,421.883l2.543,8.329v66.282l9.96-7.931v-58.729l9.713-2.919l0.005,69.584l9.956-8.069v-58.601l9.713-3.053v57.308
		c0,6.076-1.023,15.21-3.87,22.583c0,0-1.312,2.945-1.994,4.227l-1.127,2.112l2.088-1.172c2.815-1.591,5.089-3.937,5.218-4.082
		l0.754-0.909c6.567-7.982,8.892-18.021,8.892-24.19v-68.229l-7.843,7.46H268.71z"/>
	<path d="M371.77,484.657h-9.874v-55.396l9.874-2.072V484.657z M349.397,421.883l2.543,8.469v121.183l9.955-6.903v-56.067
		l19.835,7.703v-81.39l-8.308,7.006H349.397z"/>
	<path d="M164.66,398.184l-1.007,0.925c4.19,7.043,6.07,18.729,6.07,27.197v18.543c0,11.408,0,19.653-0.377,25.849
		c-0.361,6.138-1.1,10.219-2.537,13.919l-3.539-0.273c-2.764-7.095-3.266-16.689-3.266-39.494v-22.96h-11.878l2.232,7.574v19.524
		c0,22.195,4.371,36.533,14.162,46.493l0.496,0.502l0.501-0.502c9.796-9.965,14.167-24.302,14.167-46.493v-21.256
		C179.685,420.694,176.513,406.559,164.66,398.184"/>
	<polygon points="452.533,421.883 455.082,430.212 455.082,496.065 465.048,488.424 465.048,429.974 473.381,427.479 
		478.708,461.712 483.146,456.458 483.146,414.877 474.849,421.883 	"/>
	<polygon points="413.517,430.072 413.517,488.43 423.013,496.075 423.013,421.883 410.974,421.883 	"/>
	<polygon points="423.013,411.938 423.013,391.357 414.255,398.313 	"/>
	<path d="M228.111,484.657h-9.878v-27.605l9.878-7.078V484.657z M205.885,421.883l6.293,20.347l2.909-11.816l13.024-3.358v16.564
		l-19.68,9.134v43.229l19.943-7.46l9.383,7.548v-81.209l-7.693,7.021H205.885z"/>
	<path d="M527.249,450.919l-9.873,7.074V429.69l9.873-2.636V450.919z M505.022,421.883l2.543,8.329v26.902
		c0,6.08,0.703,26.566,9.723,35.045l0.201,0.19h19.557v-23.156l-1.354-0.248l-5.902,15.702l-9.666-0.243
		c-1.912-3.131-2.732-6.836-2.748-19.639l19.67-9.413v-40.476l-8.303,7.006H505.022z"/>
	<path d="M830.911,485.81h-9.861v-62.765h-12.354l2.396,8.184v66.195l19.664-7.854l-0.016,36.963l-0.02,0.614
		c-0.461,12.225-3.828,22.599-9.48,29.238l-7.197-11.377v20.992l1.07-0.656c14.553-9.006,22.189-20.899,24.762-38.601l0.982-12.891
		l0.02-2.324v-95.759l-9.967,7.347V485.81z"/>
	<path d="M657.36,430.553l7.574-2.485l5.643,22.222l4.113-4.366v-29.894l-8.299,7.011h-21.539l2.707,8.612v18.126l19.209,16.512
		c-0.006,12.343-0.486,16.053-2.609,19.524h-6.799v-12.638l-9.801-6.014v26.345h19.4l0.191-0.15
		c8.717-6.836,9.717-23.239,9.738-29.976v-0.311L657.36,445.51V430.553z"/>
	<path d="M722.821,400.276l-1.053-0.889c-9.746,8.256-14.096,20.831-14.096,40.78v53.34h12.52l-2.553-8.18v-52.301
		C717.639,415.698,719.09,406.512,722.821,400.276"/>
	<path d="M768.209,485.81h-9.873v-27.604l9.873-7.074V485.81z M745.995,423.04l6.291,20.352l2.895-11.821l13.029-3.358v16.56
		l-19.68,9.134v43.229l19.947-7.456l9.385,7.549v-81.214l-7.699,7.026H745.995z"/>
	<path d="M894.704,452.071l-9.873,7.078v-28.303l9.873-2.63V452.071z M872.489,423.04l2.547,8.329v26.902
		c0,6.081,0.701,26.566,9.713,35.046l0.195,0.19h19.561v-23.157l-1.352-0.248l-5.891,15.696l-9.672-0.237
		c-1.918-3.137-2.738-6.84-2.76-19.639l19.674-9.419v-40.47l-8.303,7.006H872.489z"/>
	<polygon points="934.678,423.04 937.225,431.369 937.225,497.217 947.17,489.581 947.17,431.131 955.52,428.635 960.848,462.869 
		965.295,457.61 965.295,416.034 956.977,423.04 	"/>
	<path d="M912.665,136.794c-9.275-9.052-26.77-11.831-40.906-8.152c-4.648-0.656-6.256,0.897-7.408,2.97
		c-0.625,1.143-1.111,2.429-1.762,3.647c-0.631,1.174-1.426,2.331-2.66,3.235c1.012,7.326,0.789,15.251,0.717,23.347
		c-0.082,8.199,0,16.508,1.576,24.966c-6.736,9.243-11.918,18.703-19.26,27.941l-0.828,1.038l-0.164-1.313
		c-0.76-5.998-1.52-12.343-2.553-18.677c-1.018-6.319-2.311-12.643-4.133-18.621c-1.227-2.34-1.996-4.878-2.656-7.43
		c-0.666-2.563-1.234-5.172-2.076-7.672c-0.094-0.295-0.213-0.579-0.32-0.874l0.494,0.243c-1.652-4.954-4.334-9.377-11.242-12.534
		c-0.631-5.007,0.477-9.584,2.229-13.893c1.688-4.165,3.988-8.138,5.961-12.1c-3.297-3.721-8.215-6.903-14.24-6.732
		c-0.934,0.48-2.205,0.754-3.496,0.966c-1.344,0.217-2.785,0.383-4.035,0.625c-1.262,0.253-2.135,0.558-2.547,0.966
		c-0.254,0.254-0.434,0.661,0.207,1.606c1.818,1.416,1.188,2.563,0.355,3.493l-0.568,0.62c-0.176,0.207-0.33,0.409-0.443,0.61
		c-0.207,0.35-0.307,0.723-0.178,1.188c2.186,2.355,5.039,5.259,8.902,4.866c4.135,1.498,4.299,3.576,3.316,5.776
		c-0.418,0.95-1.053,1.932-1.523,2.924c-0.465,0.961-0.697,1.818-0.516,2.914c-1.152,3.602-3.957,5.431-7.162,6.764l1.359,0.646
		l-1.379,0.062c-1.582,0.65-3.291,1.193-5.012,1.781c-1.566,0.533-3.137,1.101-4.625,1.814c1.211,15.686,2.273,32.162,4.283,48.499
		c2.02,16.394,4.98,32.652,9.992,47.827c0.844,1.014,1.463,2.16,1.994,3.301c0.533,1.153,0.998,2.337,1.551,3.442
		c1.037,2.097,2.334,3.797,5.016,4.474c14.953-8.897,20.662-20.925,25.018-33.469c1.814-2.057,3.385-4.201,4.852-6.376
		c1.479-2.191,2.846-4.412,4.258-6.604c2.826-4.391,5.838-8.716,10.172-12.466l0.754-0.651l0.166,0.98
		c3.059,18.476,8.189,35.004,15.051,56.291c6.871,21.317,16.311,60.257-4.039,74.864c-12.391,14.678-32.721,18.182-53.848,20.718
		c-9.311-1.043-20.066-0.294-30.023-1.188c-10.002-0.903-18.549-3.15-25.586-10.25c0,0-0.65-2.872-0.387-5.315
		c0.244-2.331,0.49-2.342,2.223-3.99l0.004,0.005c0.186-0.175,0.389-0.34,0.58-0.511c1.74-1.564,3.875-2.557,6.09-3.761
		c0.223-0.066,0.42-0.17,0.646-0.233c8.23-3.761,10.221-0.847,11.594,3.209c0.33,0.94,0.625,1.942,1.002,2.919
		c0.361,0.966,0.795,1.887,1.375,2.691c1.143,1.593,2.898,2.826,6.299,3.101c1.234,0.604,2.127,0.512,2.867,0.16
		c0.387-0.191,0.754-0.459,1.127-0.775c0.365-0.335,0.723-0.707,1.063-1.064c1.193-1.213,2.553-2.501,4.543-1.528
		c-0.586-3.173,2.117-4,4.893-4.324c1.602-0.177,3.398-0.228,5.006-0.46c1.535-0.228,2.732-0.59,3.357-1.783
		c-0.123-0.263-0.305-0.485-0.424-0.691c-0.371-0.693-0.189-1.257,0.512-1.814c-1.736-1.131-1.693-2.552-1.223-3.947
		c0.23-0.692,0.582-1.416,0.814-2.139c0.178-0.542,0.254-1.043,0.191-1.509c-1.461-0.19-2.654-0.961-2.924-1.984
		c-0.336-1.317,0.879-2.139,2.688-2.309c1.504-3.111,1.693-7.012,1.188-9.993c-2.547,0.161-4.764,0.858-6.412,2.232
		c0.543,0.016,1.092,0.073,1.582,0.182c0.898,0.206,1.922,0.691,2.035,1.787l-0.408,0.595c-0.826,0.236-1.541,0.779-2.197,1.461
		c-0.695,0.709-1.297,1.509-1.906,2.145c-1.395,1.452-3.012,2.139-5.346-0.243l-0.113-0.63c1.104-2.351,0.045-4.18-1.98-5.978
		c-0.506-0.46-1.068-0.889-1.643-1.323l-1.813-1.297c-1.117-0.796-2.248-1.601-3.18-2.443c-0.82,0.237-1.584,0.744-2.371,1.396
		c-0.842,0.691-1.625,1.487-2.443,2.144c-0.33,1.261-1.146,2.206-2.143,2.96c-1.045,0.791-2.338,1.41-3.598,2.011
		c-0.629,0.299-1.266,0.594-1.879,0.914c-0.596,0.31-1.18,0.641-1.715,1.002c-1.014,0.703-1.799,1.52-2.57,2.843
		c-1.715,0.516-3.068,0.355-4.242-0.119c-0.582-0.238-1.115-0.543-1.611-0.863l-1.234-0.791c-0.248,0.083-0.434,0.202-0.574,0.342
		c-0.582,0.397-0.65,1.101-0.5,2.247c0.104,0.738,0.248,1.509,0.273,2.236c0.021,0.735-0.082,1.524-0.697,2.284
		c-3.109,2.037-6.504,3.994-9.668,6.175c-3.197,2.206-6.09,4.607-8.178,7.537c-4.568,7.203-6.635,21.06-2.107,28.552
		c0.133,0.222,0.615-4.31,0.77-4.087c0.873-0.058,1.637,0.082,2.336,0.315c0.738,0.248,1.42,0.608,2.111,0.95
		c1.309,0.65,2.518,1.143,4.521,0.615c3.199,0.377,3.834,1.968,3.875,3.74c0.025,0.749-0.063,1.555-0.004,2.314
		c0.061,0.692,0.258,1.271,0.729,1.716c7.254,7.543,18.107,14.126,31.227,13.231c9.33-2.196,19.561-3.173,29.299-4.965
		c9.719-1.787,18.854-4.356,26.191-9.775c6.1-2.455,11.449-5.451,16.217-8.81v-0.021c6.133-4.345,11.32-9.325,15.934-14.615
		c4.113-4.724,7.363-11.745,9.875-17.264c5.734-12.616,4.561-22.268,7.238-29.145c10.803-27.77,9.418-48.885,11.607-76.492
		c2.467-4.69,3.334-9.501,3.396-14.403c0.061-4.935-0.693-9.93-1.432-14.942c-1.479-10.007-2.961-20.258,2.273-30.116
		c0.305-2.222,0.773-4.629,1.141-7.073c0.361-2.438,0.627-4.918,0.518-7.289C919.758,143.717,918.073,139.553,912.665,136.794"/>
	<path d="M982.092,415.688l-0.201,3.06h0.424c0.16-1.039,0.449-1.736,0.867-2.088c0.311-0.3,0.832-0.485,1.582-0.553v6.769
		c0,0.366-0.109,0.599-0.305,0.702c-0.182,0.104-0.527,0.172-1.014,0.181v0.42h4.076v-0.42c-0.521-0.009-0.877-0.072-1.059-0.181
		c-0.176-0.119-0.273-0.352-0.273-0.702v-6.769c0.678,0.052,1.152,0.197,1.441,0.423c0.48,0.384,0.816,1.122,1.002,2.218h0.428
		l-0.221-3.06H982.092z"/>
	<path d="M999.055,416.282c0.113-0.098,0.434-0.155,0.945-0.176v-0.419h-2.703l-2.102,6.237l-2.254-6.237h-2.836v0.419
		c0.521,0.005,0.857,0.052,1.012,0.15c0.146,0.093,0.229,0.336,0.229,0.728v5.581c0,0.443-0.094,0.733-0.264,0.868
		c-0.166,0.133-0.496,0.242-0.977,0.32v0.429h3.043v-0.429c-0.502-0.042-0.857-0.124-1.059-0.265
		c-0.201-0.129-0.295-0.423-0.295-0.889v-6.071l2.744,7.653h0.396l2.48-7.198v5.891c-0.006,0.311-0.072,0.527-0.207,0.656
		c-0.123,0.123-0.434,0.201-0.924,0.223v0.429H1000v-0.429c-0.445-0.026-0.738-0.1-0.9-0.192c-0.154-0.104-0.227-0.331-0.227-0.687
		v-5.891C998.874,416.603,998.93,416.37,999.055,416.282"/>
</g>
</svg>
